<svg width="24" height="24" viewBox="0 0 24 24" fill="none" xmlns="http://www.w3.org/2000/svg">
<path fill-rule="evenodd" clip-rule="evenodd" d="M16.95 9.79497C17.0455 9.70273 17.1217 9.59238 17.1741 9.47038C17.2265 9.34837 17.2541 9.21715 17.2553 9.08437C17.2564 8.95159 17.2311 8.81991 17.1808 8.69702C17.1306 8.57412 17.0563 8.46247 16.9624 8.36858C16.8685 8.27468 16.7569 8.20043 16.634 8.15015C16.5111 8.09987 16.3794 8.07457 16.2466 8.07572C16.1138 8.07688 15.9826 8.10446 15.8606 8.15687C15.7386 8.20928 15.6283 8.28546 15.536 8.38097L10.586 13.331L8.46503 11.21C8.37218 11.1171 8.26195 11.0433 8.14061 10.993C8.01928 10.9427 7.88923 10.9168 7.75788 10.9168C7.49261 10.9167 7.23817 11.022 7.05053 11.2095C6.86289 11.397 6.75742 11.6513 6.75732 11.9166C6.75723 12.1819 6.86252 12.4363 7.05003 12.624L9.80803 15.382C9.91018 15.4842 10.0315 15.5652 10.165 15.6206C10.2984 15.6759 10.4415 15.7043 10.586 15.7043C10.7305 15.7043 10.8736 15.6759 11.0071 15.6206C11.1406 15.5652 11.2619 15.4842 11.364 15.382L16.95 9.79497Z" fill="#525252"/>
</svg>
