<svg width="96" height="96" viewBox="0 0 96 96" fill="none" xmlns="http://www.w3.org/2000/svg">
<path d="M71.3603 38.3793L77.0007 38.0198C77.0102 38.0191 77.0205 38.0183 77.0308 38.0176C81.0503 37.6766 84.6582 35.559 86.9302 32.2062L91.3892 25.6272C95.2703 19.8998 96.774 12.982 95.6219 6.14899C95.3956 4.80698 94.7129 3.5703 93.7007 2.66802C92.6878 1.765 91.3855 1.23173 90.0335 1.16691C83.1472 0.835463 76.5005 3.16667 71.312 7.72817L65.3515 12.9688C62.3142 15.6388 60.656 19.4947 60.801 23.5494C60.8017 23.559 60.8017 23.5693 60.8024 23.5796L61.124 29.2533C61.2492 31.4652 60.4428 33.6476 58.9157 35.2371L12.3497 83.3446C11.1031 84.652 10.4593 86.4455 10.5376 88.3952C10.6241 90.5415 11.6033 92.6495 13.1575 94.035C14.5616 95.2864 16.4915 95.9994 18.4207 95.9994C18.6273 95.9994 18.8338 95.9913 19.0396 95.9743C20.974 95.8189 22.6681 94.9616 23.815 93.5518L65.7148 41.3049C67.1042 39.5857 69.1623 38.5192 71.3603 38.3793ZM63.478 39.4841L21.5819 91.7266C20.9417 92.5133 19.9574 92.9979 18.8104 93.09C17.4459 93.1997 16.0469 92.7431 15.067 91.8695C14.087 90.9952 13.4688 89.6532 13.4139 88.2781C13.367 87.1224 13.7266 86.0816 14.4195 85.3554L60.9819 37.2516C63.0693 35.0795 64.1679 32.1045 63.998 29.0891L63.6765 23.4301C63.5673 20.2563 64.8674 17.2386 67.2456 15.1475L73.206 9.9069C77.832 5.84037 83.7603 3.76401 89.8965 4.05716C90.5953 4.09105 91.2676 4.36652 91.7913 4.8335C92.315 5.29974 92.6673 5.93907 92.7845 6.63217C93.8113 12.7242 92.471 18.8907 89.011 23.9965L84.552 30.5762C82.773 33.2013 79.9495 34.8607 76.803 35.1325L71.178 35.4905C68.1809 35.682 65.3757 37.136 63.478 39.4841Z" fill="#F7CE54"/>
<path d="M93.341 82.9793L62.1185 54.381C61.5311 53.8426 60.6215 53.8853 60.0853 54.476C59.5507 55.0668 59.5932 55.9823 60.1806 56.5207L91.3949 85.1123C92.1376 85.8025 92.5587 86.8197 92.5814 87.9761C92.6085 89.3519 92.0717 90.7286 91.1452 91.6603C90.2194 92.5913 88.8527 93.1327 87.4816 93.1047C86.3317 93.0819 85.3202 92.6583 84.6413 91.9196L56.8195 61.2023C56.2841 60.6108 55.3737 60.5688 54.7863 61.1065C54.1989 61.6449 54.1564 62.5605 54.6918 63.1512L82.5202 93.8759C83.7433 95.2061 85.485 95.9603 87.4252 95.9986C87.4757 95.9994 87.5255 96.0001 87.5761 96.0001C89.6613 96.0001 91.7465 95.1494 93.1798 93.7072C94.6491 92.2297 95.5009 90.0664 95.4584 87.9193C95.4203 85.9682 94.671 84.2167 93.341 82.9793Z" fill="#F7CE54"/>
<path d="M17.3642 38.1051C19.746 40.3119 22.8405 41.5699 26.0778 41.648C26.088 41.6487 26.0983 41.6487 26.1078 41.6487L31.7592 41.6664C33.9623 41.673 36.0797 42.6136 37.5658 44.2421L40.0553 46.9902C40.3395 47.304 40.7284 47.4631 41.1195 47.4631C41.4652 47.4631 41.8124 47.3386 42.0878 47.086C42.6759 46.5475 42.7184 45.632 42.183 45.0413L39.6898 42.2895C37.6596 40.0636 34.7724 38.782 31.7687 38.7717L26.1327 38.754C23.6286 38.69 21.2343 37.7258 19.379 36.0369L3.00135 16.4578C2.83436 16.2574 2.84681 15.9672 3.03065 15.7824C3.15663 15.6549 3.30458 15.6365 3.38148 15.6365C3.45839 15.6365 3.60634 15.6549 3.73304 15.7824L18.6408 30.7749C20.1144 32.2569 22.5124 32.2569 23.986 30.7742L25.7379 29.0131V29.0124L28.8485 25.8842C28.8485 25.8842 28.8493 25.8842 28.8493 25.8835L28.85 25.8827L30.6012 24.1216C32.0749 22.6397 32.0749 20.2282 30.6012 18.7463L15.6935 3.7544C15.5001 3.55995 15.5001 3.2425 15.6935 3.04805C15.8773 2.86317 16.1659 2.85065 16.3651 3.01858L35.8344 19.4894C37.5146 21.3544 38.4733 23.7629 38.537 26.2805L38.5539 31.949C38.5641 34.9689 39.8393 37.8724 42.0556 39.9185L44.7231 42.3617C45.3112 42.9001 46.2209 42.8574 46.7563 42.2667C47.2909 41.6752 47.2484 40.7604 46.661 40.222L43.998 37.7825C42.3742 36.2844 41.4396 34.1543 41.4323 31.9394L41.4147 26.2562C41.4147 26.2459 41.4147 26.2355 41.414 26.2252C41.3363 22.9697 40.0854 19.8577 37.891 17.4624C37.85 17.4175 37.8061 17.3748 37.7592 17.335L18.2174 0.803761C16.8668 -0.339373 14.9069 -0.253932 13.6588 1.00116C12.3427 2.32475 12.3427 4.4777 13.6588 5.80055L28.5666 20.7931C28.9181 21.1467 28.9181 21.7219 28.5666 22.0755L27.8319 22.8135L11.2169 6.10549C10.6552 5.53981 9.74403 5.53981 9.18227 6.10549C8.6205 6.67042 8.6205 7.5867 9.18227 8.15164L25.7973 24.8604L24.7206 25.9424L8.10561 9.23437C7.54384 8.66944 6.6327 8.66944 6.07094 9.23437C5.50844 9.79931 5.50844 10.7156 6.07094 11.2805L22.6852 27.9893L21.9513 28.728C21.5998 29.0816 21.0277 29.0816 20.6762 28.728L5.76771 13.7362C5.13051 13.0954 4.28309 12.7419 3.38148 12.7419C2.47987 12.7419 1.63246 13.0954 0.99525 13.7362C-0.252797 14.9913 -0.337026 16.9623 0.798961 18.3213L17.2382 37.9726C17.277 38.0197 17.3195 38.0639 17.3642 38.1051Z" fill="#F7CE54"/>
</svg>
