<svg width="96" height="82" viewBox="0 0 96 82" fill="none" xmlns="http://www.w3.org/2000/svg">
<path d="M29.0183 82V63.0075H0L18.8156 34.5188H9.67118L33.7637 0L48 20.4169L62.2363 0L86.3288 34.5188H77.1844L96 63.0075H66.9817V82H57.4909V63.0075H38.5091V82H29.0183ZM64.4002 58.2594H87.2589L68.4148 29.7707H77.1844L62.2363 8.40417L50.9849 24.5003L57.8563 34.5188H48.7118L64.4002 58.2594ZM8.73633 58.2594H58.7864L39.9423 29.7707H48.7118L33.7637 8.40417L18.8156 29.7707H27.5852L8.73633 58.2594ZM8.73633 58.2594H27.5852H18.8156H48.7118H39.9423H58.7864H8.73633ZM64.4002 58.2594H48.7118H57.8563H50.9849H77.1844H68.4148H87.2589H64.4002Z" fill="#F7CE54"/>
</svg>
