<svg width="20" height="20" viewBox="0 0 20 20" fill="none" xmlns="http://www.w3.org/2000/svg">
<path fill-rule="evenodd" clip-rule="evenodd" d="M13.8916 10.9417C15.0333 11.7167 15.8333 12.7667 15.8333 14.1667V16.6667H18.3333C18.7916 16.6667 19.1666 16.2917 19.1666 15.8333V14.1667C19.1666 12.35 16.1916 11.275 13.8916 10.9417Z" fill="black"/>
<path d="M7.50033 10.0002C9.34127 10.0002 10.8337 8.50778 10.8337 6.66683C10.8337 4.82588 9.34127 3.3335 7.50033 3.3335C5.65938 3.3335 4.16699 4.82588 4.16699 6.66683C4.16699 8.50778 5.65938 10.0002 7.50033 10.0002Z" fill="black"/>
<path fill-rule="evenodd" clip-rule="evenodd" d="M12.4997 10.0002C14.3413 10.0002 15.833 8.5085 15.833 6.66683C15.833 4.82516 14.3413 3.3335 12.4997 3.3335C12.108 3.3335 11.7413 3.41683 11.3913 3.5335C12.1084 4.42034 12.4996 5.52633 12.4996 6.66683C12.4996 7.80733 12.1084 8.91332 11.3913 9.80016C11.7413 9.91683 12.108 10.0002 12.4997 10.0002ZM7.49967 10.8335C5.27467 10.8335 0.833008 11.9502 0.833008 14.1668V15.8335C0.833008 16.2918 1.20801 16.6668 1.66634 16.6668H13.333C13.7913 16.6668 14.1663 16.2918 14.1663 15.8335V14.1668C14.1663 11.9502 9.72467 10.8335 7.49967 10.8335Z" fill="black"/>
</svg>
