<svg width="20" height="19" viewBox="0 0 20 19" fill="none" xmlns="http://www.w3.org/2000/svg">
<path d="M13.9359 11.9815L13.4424 12.4721C13.4424 12.4721 12.2696 13.6383 9.06834 10.4551C5.86711 7.27209 7.0399 6.10595 7.0399 6.10595L7.3506 5.79699C8.11609 5.03591 8.18824 3.81399 7.52036 2.92194L6.15434 1.09717C5.32778 -0.00691976 3.7306 -0.152769 2.78321 0.789233L1.08282 2.47998C0.61306 2.94707 0.298265 3.55256 0.336442 4.22424C0.434104 5.94264 1.21158 9.63992 5.54995 13.9536C10.1506 18.5281 14.4673 18.7099 16.2326 18.5454C16.791 18.4934 17.2765 18.209 17.6678 17.8198L19.2068 16.2897C20.2456 15.2568 19.9527 13.486 18.6236 12.7635L16.5538 11.6383C15.6811 11.164 14.6179 11.3033 13.9359 11.9815Z" fill="#4DACB8"/>
</svg>
