<svg id="Слой_1" data-name="Слой 1" xmlns="http://www.w3.org/2000/svg" viewBox="0 0 179.1 47.92"><defs><style>.cls-1{fill:#fff;}.cls-2{fill:#ae1708;fill-rule:evenodd;}</style></defs><path class="cls-1" d="M166.62,76.18l1-1,1-1c.51-.54,1.07-1.09,1.68-1.68s1.16-1.1,1.67-1.57.84-.69,1-.69a1.68,1.68,0,0,1,.94.52c.4.35.66.59.8.73a11.85,11.85,0,0,1,.81.94c.34.45.47.78.38,1l-.14.14a.82.82,0,0,1-.31.45,3.44,3.44,0,0,0-.46.38l-2.09,2.1-3.35,4-1.68,1.88a9.5,9.5,0,0,0,2-.59c.74-.31,1.5-.63,2.27-1s1.5-.72,2.19-1.12,1.28-.73,1.75-1,.81-.44.91-.35l.76.7a1.53,1.53,0,0,1-.14.42l-.62.42c-.61.46-1.4,1-2.38,1.71a33.51,33.51,0,0,1-3.07,1.88,17,17,0,0,1-3.21,1.36,4.18,4.18,0,0,1-2.72.07c-.33,0-.68-.25-1.05-.77a6.94,6.94,0,0,1-.7-1.11,6.7,6.7,0,0,1-.55-1.08,3,3,0,0,1-.28-1.16,2.68,2.68,0,0,1,.7-1.11c.23-.33.48-.65.76-1a6.33,6.33,0,0,0-1-.07c-1.17,0-2.33,0-3.49.07l-5.38,6.14c-.14.14-.3.13-.49,0a6.78,6.78,0,0,1-.59-.6,4.88,4.88,0,0,1-.56-.73,4.37,4.37,0,0,0-.31-.45c-.14-.28-.32-.64-.53-1.08a2.05,2.05,0,0,1-.24-1.16,2.79,2.79,0,0,1,.63-1.11c.42-.56.89-1.14,1.43-1.75s1.05-1.16,1.53-1.67l1-1,1-1c.52-.54,1.07-1.09,1.68-1.68s1.16-1.1,1.67-1.57.84-.69,1-.69a1.65,1.65,0,0,1,.94.52c.4.35.69.59.88.73l.62.77a2.45,2.45,0,0,1,.49.84L162.15,76H163l1.57,0c.53,0,1.1.06,1.71.11Zm-25.2,6.28c-.46.28-1,.6-1.67,1a17.16,17.16,0,0,1-2,1,10.27,10.27,0,0,1-2.09.6,3.93,3.93,0,0,1-1.89-.11c-.32,0-.67-.25-1-.77A5.7,5.7,0,0,1,132,83a6.66,6.66,0,0,1-.56-1.08,2.18,2.18,0,0,1-.21-1.16,2.79,2.79,0,0,1,.63-1.11c.42-.56.89-1.14,1.43-1.75s1.05-1.16,1.54-1.67.82-.86,1-1l1-1c.52-.54,1.07-1.09,1.68-1.68s1.16-1.1,1.67-1.57.84-.69,1-.69a1.65,1.65,0,0,1,.94.52c.4.35.67.59.81.73s.45.5.8.94.48.78.38,1v.14a1.13,1.13,0,0,1-.42.45,2.68,2.68,0,0,0-.48.38c-.38.38-.73.72-1,1s-.65.67-1,1l-3.42,4-1.67,1.88a8.16,8.16,0,0,0,4.11-1.71,30.55,30.55,0,0,0,3.28-3.11c.61-.74,1.33-1.53,2.17-2.37l1-1c.51-.54,1-1.09,1.64-1.68s1.12-1.1,1.64-1.57.83-.69,1-.69a1.67,1.67,0,0,1,.95.52c.39.35.66.59.8.73s.38.5.73.94.48.78.38,1v.14a1.27,1.27,0,0,1-.38.45,4.11,4.11,0,0,0-.45.38l-1.05,1-1,1-3.28,4-1.67,1.88a9.25,9.25,0,0,0,2-.59c.75-.31,1.49-.63,2.24-1s1.45-.72,2.12-1.12,1.25-.73,1.71-1,.89-.44,1-.35.35.33.77.7a2,2,0,0,1-.14.42l-.63.42q-.9.69-2.34,1.71a30.35,30.35,0,0,1-3,1.88,17,17,0,0,1-3.21,1.36,4.21,4.21,0,0,1-2.73.07.91.91,0,0,1-.59-.28,3.46,3.46,0,0,1-.59-.66c-.19-.26-.36-.52-.53-.8S141.51,82.65,141.42,82.46Zm-9.77-8.65a1.6,1.6,0,0,1-.21,1.11,13.36,13.36,0,0,1-1.15,2.2c-.49.77-1,1.5-1.54,2.2a9,9,0,0,1-1.22,1.39,7.07,7.07,0,0,0,1.47-.27,7,7,0,0,0,1.32-.56c.38-.24.74-.44,1.08-.63l1-.56c.51-.32.81-.44.9-.35s.35.33.77.7c.09.09,0,.23-.14.42l-.63.42c-.51.42-1,.85-1.64,1.29a11.06,11.06,0,0,1-1.81,1.12,6.53,6.53,0,0,1-2,.59,3.68,3.68,0,0,1-2.09-.35q-.63.56-1.5,1.26a7.79,7.79,0,0,1-1.82,1.08,3.52,3.52,0,0,1-1.88.24A2.42,2.42,0,0,1,119,83.93l-1.68-2.45a2.51,2.51,0,0,1-.38-2.06,7.87,7.87,0,0,1,.87-2.26,12.76,12.76,0,0,1,1.47-2.1,14.88,14.88,0,0,1,1.46-1.53,23.33,23.33,0,0,1,1.89-1.71,10.85,10.85,0,0,1,2.09-1.36c.51-.24,1.07-.47,1.67-.7a2.54,2.54,0,0,1,1.33-.07c-.32-.84-.63-1.7-.91-2.59-.42-1.34-.83-2.69-1.25-4L124.25,59c-.09-.14,0-.28.14-.42.56-.09,1.07-.16,1.54-.21s1-.08,1.74-.1,1.44,0,2.23,0,1.53,0,2.2,0,1.26,0,1.75.1a2.45,2.45,0,0,1,.8.14,2.33,2.33,0,0,1,.35.59,8.68,8.68,0,0,1,.38,1c.12.35.22.69.32,1a3.19,3.19,0,0,1,.14.7V62a13.58,13.58,0,0,0-1.61-.17c-.51,0-1-.06-1.53-.11l-3,.07-2.31.07c.47,1.4,1,2.77,1.47,4.12.84,2.37,1.67,4.79,2.51,7.26,0,0,.09.16.28.35Zm-7.4,7.6a3.59,3.59,0,0,1-.84-2.3,8.67,8.67,0,0,1,.35-2.44c-.46.65-.9,1.31-1.32,2a20.55,20.55,0,0,0-1.12,2,7.56,7.56,0,0,0-.31.77.63.63,0,0,0,.17.77,1.22,1.22,0,0,0,1.19.11,5.9,5.9,0,0,0,1.11-.46,4.49,4.49,0,0,1,.42-.24A1.16,1.16,0,0,0,124.25,81.41Zm1.26-1.18c.14-.14.39-.45.77-.91s.74-1,1.11-1.57.73-1.18,1.08-1.78a5.91,5.91,0,0,0,.67-1.57,1,1,0,0,0-.21-1c-.24-.21-.7-.22-1.4,0-.18.28-.48.73-.87,1.36a15.3,15.3,0,0,0-1,2,7.48,7.48,0,0,0-.59,2A1.64,1.64,0,0,0,125.51,80.23Zm-22.62,3.63c-.74.32-1.58.65-2.51,1a4.18,4.18,0,0,1-2.72.07c-.33,0-.68-.25-1-.77S96,83.25,95.84,83s-.31-.64-.52-1.08a2.05,2.05,0,0,1-.24-1.16,2.75,2.75,0,0,1,.66-1.11c.44-.56.93-1.14,1.47-1.75s1-1.16,1.53-1.67l1-1,1-1c.51-.54,1.07-1.09,1.67-1.68l1.68-1.57c.51-.46.84-.69,1-.69a1.68,1.68,0,0,1,.94.52c.39.35.66.59.8.73a6.46,6.46,0,0,0,.7.94c.37.45.51.78.42,1v.14a1.13,1.13,0,0,1-.42.45,2.77,2.77,0,0,0-.49.38c-.37.38-.71.72-1,1s-.64.67-1,1l-3.35,4L100,82.39a13.07,13.07,0,0,0,3.49-1.26c1.12-.51,2.1-1,2.93-1.46q1.47-1.74,2.8-3.56,2.5-3.49,4.46-6c.19-.19.49-.15.91.1a6.05,6.05,0,0,1,1.26,1.08,16.84,16.84,0,0,1,1.08,1.36c.3.45.38.74.24.88q-3.42,4.45-6.77,8.76a54.13,54.13,0,0,1-7.61,7.92,37.14,37.14,0,0,1-6.49,4.53,25.14,25.14,0,0,1-7.4,2.66,3.55,3.55,0,0,1-.87-1,10.43,10.43,0,0,1-.91-1.64,4.65,4.65,0,0,1-.41-1.64.87.87,0,0,1,.66-1,2.37,2.37,0,0,0,.8.18,9.73,9.73,0,0,0,1.08,0c.38,0,.74-.06,1.09-.11s.61-.09.8-.14a14.93,14.93,0,0,0,6.42-3.21A49.29,49.29,0,0,0,102.89,83.86Zm2.52-23.94a5.67,5.67,0,0,0-.81-.53l-.87-.45c-.84-.37-1.71-.72-2.62-1s-1.82-.6-2.75-.84a55.74,55.74,0,0,0-12.67-1.67,127.59,127.59,0,0,0-12.81.35,82.51,82.51,0,0,0-15.42,2.58,102.5,102.5,0,0,0-14.8,5.17c-3,1.34-6,2.81-8.79,4.39l-1.57,1c-.54.33-1.06.67-1.57,1.05h-.07l-1.47-2.11a4.08,4.08,0,0,1,.59-.59,7.79,7.79,0,0,0,.6-.53c.88-.69,1.8-1.36,2.75-2L36,62.82a52.32,52.32,0,0,1,6.49-3.5,95.64,95.64,0,0,1,10.19-4.2,96.66,96.66,0,0,1,14.2-3.81,103.57,103.57,0,0,1,14.63-1.72c1.53-.05,3.2-.09,5-.11s3.59,0,5.41.18a51.93,51.93,0,0,1,5.34.69,29.31,29.31,0,0,1,4.85,1.33,13.56,13.56,0,0,1,1.74.88,9.49,9.49,0,0,1,1.61,1.16l.45.48a5.15,5.15,0,0,1,.38.49l3.63,6.85a21.31,21.31,0,0,1-5.55,6.23,44.7,44.7,0,0,1-7.46,4.65,57.32,57.32,0,0,1-8.27,3.36q-4.26,1.36-8,2.27a126.59,126.59,0,0,1-12.7,2.32q-6.42.82-12.85,1.18c-1.48.1-2.95.15-4.39.18s-2.86,0-4.26-.11h-.7a10.08,10.08,0,0,1-1.19-.07,9.69,9.69,0,0,1-1.11-.17c-.33-.07-.51-.15-.56-.25l-1.26-3.07c-1.76,1.63-3.51,3.29-5.23,5l-5.1,5.06-4.74,5.38h-.14a.06.06,0,0,1-.07-.07,2.15,2.15,0,0,1-.77-.7,13,13,0,0,1-.8-1.19,7,7,0,0,1-.63-1.29,2,2,0,0,1-.17-1A5.76,5.76,0,0,1,25,87.73c.76-.86,1.72-1.9,2.86-3.11s2.4-2.5,3.77-3.87,2.67-2.68,3.91-3.91l3.21-3.21q1.35-1.36,1.71-1.71l5.44-5.3,5.44-5.31a2.73,2.73,0,0,1,2.45-.77,2.35,2.35,0,0,1,.84.28c.09,0,.2.07.34.21a3.08,3.08,0,0,1,1,.42c.51.28,1,.59,1.54.94a9.12,9.12,0,0,1,1.29,1c.35.35.45.57.31.66q-3.56,2.52-6.91,5.06t-6.56,5.27q5,.15,10.05.25c3.35.07,6.73.06,10.12,0q5.31-.14,10.86-.8a61.63,61.63,0,0,0,10.78-2.27,43.12,43.12,0,0,0,9.84-4.4A30.07,30.07,0,0,0,105.41,59.92Z" transform="translate(-23.87 -49.48)"/><path class="cls-2" d="M196.37,62.45c-.13-2.31-.26-4.59-.38-6.88,0-.3,0-.6-.05-.9a2.93,2.93,0,0,0-.68-2.21l4.84,2.46L203,64.53l-14.4,14.56,7.37-14.57a2.59,2.59,0,0,0,.43-2.07m-2.13-8.52-4.2-4-5.2,2.43L181.38,61l3.16,21.74L194.7,63.09ZM180,59.71c.88-2.14,1.74-4.25,2.6-6.38.12-.28.23-.55.34-.83a3,3,0,0,1,1.37-1.88l-5.39.76-5.83,8.14L182,78l-2.22-16.17A2.54,2.54,0,0,1,180,59.71Z" transform="translate(-23.87 -49.48)"/><path class="cls-1" d="M172.34,92.94v1.64h-2.22V92.94h-.76v4.23h.76V95.25h2.22v1.92h.74V92.94Zm-9,.76h.09l.81,2h-1.69Zm-.34-.76-1.88,4.23h.8l.34-.78h2.26l.35.78h.81l-1.87-4.23Zm-6.57,2.4h-1.31V93.63h1.25a.83.83,0,0,1,.65.29.8.8,0,0,1,.21.57,1.14,1.14,0,0,1-.21.58A.82.82,0,0,1,156.42,95.34Zm1.56-.85a1.48,1.48,0,0,0-.35-1,1.61,1.61,0,0,0-1.24-.57h-2v4.23h.77V96h1.28a1.66,1.66,0,0,0,1.14-.44A1.55,1.55,0,0,0,158,94.49Zm-11.07.57a1.55,1.55,0,0,1,.4-1.06,1.5,1.5,0,0,1,2.15,0,1.56,1.56,0,0,1,.4,1.07,1.52,1.52,0,0,1-.39,1,1.49,1.49,0,0,1-2.16,0A1.52,1.52,0,0,1,146.91,95.06Zm1.48-2.19a2.26,2.26,0,0,0-1.64.67,2.22,2.22,0,0,0,0,3,2.25,2.25,0,0,0,1.65.7,2.22,2.22,0,0,0,1.63-.65,2.16,2.16,0,0,0,.59-1.53,2.12,2.12,0,0,0-2.22-2.19Zm-9.37.75h1.57v3.55h.74V93.62h1.57v-.68H139Zm-6.73,1.43a1.58,1.58,0,0,1,.43-1.09,1.51,1.51,0,0,1,1.05-.42,1.8,1.8,0,0,1,1.26.52l.45-.51a2.33,2.33,0,0,0-1.71-.68,2.28,2.28,0,0,0-1.61.62,2.22,2.22,0,0,0-.62,1.56,2.16,2.16,0,0,0,.64,1.57,2.22,2.22,0,0,0,1.59.62,2.26,2.26,0,0,0,1.71-.69l-.45-.5a1.84,1.84,0,0,1-1.26.51,1.5,1.5,0,0,1-1.07-.45A1.46,1.46,0,0,1,132.29,95.05Zm-7.57,2.12h3.38v-.69h-2.62V95.3h2.25v-.69h-2.25v-1H128v-.69h-3.28Zm-5.29-1.83h-1.31V93.63h1.25a.83.83,0,0,1,.65.29.8.8,0,0,1,.21.57,1.14,1.14,0,0,1-.21.58A.84.84,0,0,1,119.43,95.34Zm1.56-.85a1.54,1.54,0,0,0-.35-1,1.64,1.64,0,0,0-1.24-.57h-2.05v4.23h.77V96h1.28a1.65,1.65,0,0,0,1.13-.44A1.56,1.56,0,0,0,121,94.49Z" transform="translate(-23.87 -49.48)"/></svg>