<svg width="20" height="20" viewBox="0 0 20 20" fill="none" xmlns="http://www.w3.org/2000/svg">
<rect width="20" height="20" fill="white"/>
<path d="M13.8512 12.9717L13.8496 12.9716C13.6757 12.9511 13.4995 12.9704 13.3342 13.0278C13.1688 13.0853 13.0187 13.1795 12.8949 13.3033L12.8948 13.3035L11.3614 14.8369L11.1048 15.0935L10.7812 14.929C8.3212 13.6778 6.32167 11.6783 5.07054 9.2183L4.90599 8.89475L5.16266 8.63808L6.70433 7.09641C6.95452 6.84622 7.07709 6.49757 7.03616 6.14046C7.03615 6.14041 7.03615 6.14036 7.03614 6.1403L13.8512 12.9717ZM13.8512 12.9717L15.9656 13.2131C15.9659 13.2132 15.9663 13.2132 15.9667 13.2133C16.5599 13.2843 16.997 13.7811 16.9912 14.3617H16.9912M13.8512 12.9717L16.9912 14.3617M16.9912 14.3617V14.3666M16.9912 14.3617V14.3666M16.9912 14.3666V15.8083C16.9912 16.4805 16.4326 17.0153 15.7971 16.9759M16.9912 14.3666L15.7971 16.9759M15.7971 16.9759C8.9403 16.5499 3.44961 11.067 3.02359 4.20233L15.7971 16.9759Z" fill="white" stroke="#333333"/>
</svg>
