<svg width="20" height="20" viewBox="0 0 20 20" fill="none" xmlns="http://www.w3.org/2000/svg">
<rect width="20" height="20" fill="white"/>
<path d="M5.22665 13.5236L5.22655 13.5235C4.59967 12.8967 4.10241 12.1525 3.76315 11.3334C3.42389 10.5144 3.24927 9.63652 3.24927 8.74999C3.24927 7.86346 3.42389 6.98561 3.76315 6.16656C4.10241 5.34752 4.59967 4.60331 5.22655 3.97644C5.85342 3.34957 6.59762 2.8523 7.41667 2.51304C8.23572 2.17378 9.11357 1.99917 10.0001 1.99917C10.8866 1.99917 11.7645 2.17378 12.5835 2.51304C13.4026 2.8523 14.1467 3.34954 14.7736 3.97639L5.22665 13.5236ZM5.22665 13.5236L9.64665 17.9411L10.0001 18.2944M5.22665 13.5236L10.0001 18.2944M10.0001 18.2944L10.3536 17.9411M10.0001 18.2944L10.3536 17.9411M10.3536 17.9411L14.7736 13.5236L14.7736 13.5236M10.3536 17.9411L14.7736 13.5236M14.7736 13.5236C15.4006 12.8968 15.898 12.1526 16.2373 11.3335M14.7736 13.5236L16.2373 11.3335M16.2373 11.3335C16.5766 10.5145 16.7513 9.63656 16.7513 8.74999M16.2373 11.3335L16.7513 8.74999M16.7513 8.74999C16.7513 7.86342 16.5766 6.98553 16.2373 6.16647M16.7513 8.74999L16.2373 6.16647M16.2373 6.16647C15.898 5.34742 15.4006 4.60325 14.7737 3.97644L16.2373 6.16647ZM15.3916 14.1414L15.3915 14.1415L10.9727 18.5615L10.9727 18.5616C10.845 18.6893 10.6934 18.7907 10.5265 18.8598C10.3596 18.929 10.1807 18.9646 10.0001 18.9646C9.81946 18.9646 9.64059 18.929 9.4737 18.8598C9.30683 18.7907 9.15521 18.6893 9.02751 18.5616L9.02745 18.5615L4.6087 14.1415L4.60863 14.1414C3.90054 13.4334 3.33883 12.5928 2.95559 11.6677C2.57234 10.7426 2.37505 9.75112 2.375 8.74978C2.37495 7.74844 2.57212 6.75689 2.95527 5.83175C3.33841 4.90661 3.90003 4.06599 4.60805 3.3579C5.31606 2.64981 6.15662 2.0881 7.08172 1.70485C8.00682 1.3216 8.99834 1.12432 9.99969 1.12427C11.001 1.12421 11.9926 1.32139 12.9177 1.70454C13.8429 2.08768 14.6835 2.6493 15.3916 3.35731L15.7451 3.00374L15.3916 3.35732C16.0997 4.06538 16.6615 4.906 17.0447 5.83117C17.428 6.75635 17.6252 7.74795 17.6252 8.74937C17.6252 9.75078 17.428 10.7424 17.0447 11.6676C16.6615 12.5927 16.0997 13.4334 15.3916 14.1414ZM9.20977 10.6111L9.02632 11.0763L9.20977 10.6111C8.96194 10.5134 8.73614 10.3671 8.54562 10.1809C8.3551 9.9947 8.20371 9.7723 8.10032 9.52678C7.99694 9.28125 7.94365 9.01754 7.94358 8.75113C7.94351 8.48472 7.99667 8.22099 8.09993 7.97541C8.2032 7.72983 8.35448 7.50735 8.54491 7.32104C8.73533 7.13474 8.96106 6.98835 9.20884 6.89048C9.45662 6.79261 9.72145 6.74523 9.98779 6.75112C10.5104 6.76267 11.0076 6.97834 11.3732 7.35196C11.7387 7.72557 11.9434 8.22744 11.9436 8.75013C11.9437 9.27282 11.7392 9.77479 11.3739 10.1486C11.0085 10.5224 10.5114 10.7383 9.9888 10.7501C9.72246 10.7561 9.4576 10.7089 9.20977 10.6111Z" fill="white" stroke="#333333"/>
</svg>
