<svg width="107" height="14" viewBox="0 0 107 14" fill="none" xmlns="http://www.w3.org/2000/svg">
<g clip-path="url(#clip0_775_2622)">
<mask id="mask0_775_2622" style="mask-type:luminance" maskUnits="userSpaceOnUse" x="0" y="0" width="14" height="14">
<path fill-rule="evenodd" clip-rule="evenodd" d="M3.43379 0.00636339L4.02493 0L10.1737 0.00254568C10.2671 0.00339417 10.3252 0.00466642 10.383 0.00636339C10.6878 0.014424 10.9955 0.0322425 11.2969 0.0869698C11.5989 0.138595 11.8916 0.235239 12.1656 0.373758C12.4386 0.51291 12.689 0.694486 12.9054 0.912123C13.1219 1.12872 13.3032 1.37874 13.4425 1.65285C13.5849 1.93158 13.6741 2.21709 13.7289 2.5234C13.7833 2.82546 13.8013 3.13346 13.8093 3.43892C13.8135 3.57892 13.8151 3.71892 13.8156 3.85934L13.8164 4.10922V9.64008C13.8164 9.80638 13.8164 9.97311 13.8156 10.1398C13.8147 10.2798 13.8135 10.4198 13.8093 10.5598C13.8009 10.8653 13.7833 11.1737 13.7289 11.4754C13.6772 11.7785 13.5807 12.072 13.4425 12.3459C13.3032 12.6201 13.1219 12.8702 12.9054 13.0871C12.6881 13.3046 12.4385 13.4863 12.1656 13.6254C11.8916 13.764 11.5989 13.8606 11.2969 13.9122C10.9955 13.9665 10.6878 13.9843 10.383 13.9928L9.46449 14L3.6427 13.9966C3.57305 13.9959 3.50342 13.9944 3.43379 13.9924C3.12901 13.9848 2.8213 13.9665 2.51987 13.9122C2.21806 13.8606 1.92546 13.7639 1.65159 13.6254C1.10338 13.3458 0.656234 12.8981 0.373857 12.3459C0.235902 12.0719 0.139371 11.7784 0.0874984 11.4754C0.0330735 11.1737 0.01549 10.8653 0.00753561 10.5603C0.00334908 10.4203 0.00209337 10.2798 0.00125607 10.1398L0 9.88911V4.3591C0 4.1928 1.08587e-07 4.02607 0.00125607 3.85976C0.00209337 3.71976 0.00376773 3.57976 0.00753561 3.43934C0.0159087 3.13388 0.0334921 2.82588 0.0874984 2.52382C0.13934 2.22073 0.235873 1.92727 0.373857 1.65328C0.655822 1.10095 1.1029 0.653096 1.65117 0.373758C1.92518 0.235234 2.21792 0.138589 2.51987 0.0869698C2.8213 0.0326667 3.12901 0.0148483 3.43379 0.00636339Z" fill="white"/>
</mask>
<g mask="url(#mask0_775_2622)">
<path d="M0 -0.000976562H13.8218V14.0003H0V-0.000976562Z" fill="#19AA1E"/>
<path fill-rule="evenodd" clip-rule="evenodd" d="M0 -0.000976562H13.8218V4.59272L0 2.40533V-0.000976562Z" fill="#FFB919"/>
<path fill-rule="evenodd" clip-rule="evenodd" d="M0 12.4686L13.8218 10.2812V14.0002H0V12.4686Z" fill="#82D714"/>
<path fill-rule="evenodd" clip-rule="evenodd" d="M0 2.12891L4.82462 2.89254C5.42518 2.50733 6.13966 2.29606 6.91068 2.29606C7.97862 2.29606 8.93852 2.70121 9.63709 3.41224C9.72504 3.50218 9.80796 3.59594 9.88627 3.69351L13.8218 4.3163V4.86994L10.2858 4.30994C10.5505 4.82243 10.6891 5.39205 10.69 5.97042C10.69 6.72048 10.5245 7.46842 10.1819 8.21933L10.1719 8.24224L10.0262 8.55788H9.68274C8.97244 8.55788 8.50171 8.77297 8.19347 9.15436C7.95182 9.45345 7.81194 9.85733 7.76504 10.2977L7.76336 10.3113L7.75666 10.3817L7.75373 10.4122L7.74786 10.4721C7.72986 10.6689 7.71813 10.8356 7.71185 10.9714L13.8218 10.0041V10.5578L0 12.7456V12.1919L6.11662 11.2238L6.11411 11.0995L6.11327 11.0647L6.11244 11.0465L6.1116 11.0189C6.10615 10.8683 6.09233 10.6753 6.07056 10.4411L6.06637 10.3965L6.05883 10.3198C6.01527 9.87685 5.87749 9.4683 5.63584 9.16454C5.33137 8.7806 4.86524 8.56212 4.16039 8.55788H3.7952L3.64987 8.24224C3.30059 7.4837 3.13139 6.72812 3.13139 5.97042C3.13139 5.01757 3.51292 4.09612 4.18468 3.41224L4.24332 3.35412L0 2.68212V2.12891Z" fill="white"/>
<path fill-rule="evenodd" clip-rule="evenodd" d="M6.91083 2.84277C8.84068 2.84277 10.1503 4.34714 10.1503 5.97029C10.1503 6.62193 10.01 7.29986 9.68247 8.01089C7.78404 8.01089 7.3154 9.38799 7.22661 10.2551L7.22075 10.3124C7.19101 10.6221 7.17342 10.8703 7.16881 11.057L6.65452 11.1384V11.1214C6.64736 10.8457 6.62892 10.5704 6.59924 10.2963L6.59799 10.281C6.5159 9.41599 6.05731 8.01089 4.13961 8.01089C3.81169 7.29986 3.67139 6.62193 3.67139 5.97029C3.67139 4.34714 4.9814 2.84277 6.91083 2.84277Z" fill="#0073FA"/>
</g>
<path fill-rule="evenodd" clip-rule="evenodd" d="M20.4643 2.54541C18.3351 2.54541 16.7386 3.82789 16.752 6.05517H18.7309C18.7037 5.16426 19.2766 4.30008 20.4643 4.30008C21.3647 4.30008 21.9381 4.89402 21.9381 5.65002C21.9381 6.43317 21.3099 6.86505 20.3006 7.35123C18.9767 7.98547 18.1852 8.28244 16.752 8.75462V11.3196H24.1213V9.5645H19.4269C20.1108 9.28238 20.7767 8.97268 21.3786 8.68717C22.975 7.93159 23.9165 7.08099 23.9165 5.55583C23.9165 3.71971 22.5248 2.54541 20.4643 2.54541ZM27.1237 4.43499H30.9449V2.68032H25.2131V11.3196H27.1237V4.43499ZM33.9473 2.68032H32.0367V11.3196H33.9334L37.4954 5.7985V11.3196H39.4059V2.68032H37.4954L33.9473 8.20141V2.68032ZM48.9999 8.07965H47.0211C46.7208 9.03844 45.8065 9.69983 44.7285 9.69983C43.1588 9.69983 42.1353 8.36347 42.1353 6.99996C42.1353 5.63644 43.1316 4.30008 44.783 4.30008C45.8748 4.30008 46.7208 4.96189 47.0211 5.92026H48.9999C48.7134 3.98996 47.1714 2.54541 44.7285 2.54541C42.0264 2.54541 40.2247 4.42183 40.2247 6.99996C40.2247 9.57808 42.0264 11.4545 44.7285 11.4545C47.1714 11.4545 48.7134 10.0375 48.9999 8.07965Z" fill="#262626"/>
</g>
<path d="M73.756 9.858H72.454V12H70.718V9.858H66.266V8.542L70.76 1.976H72.454V8.416H73.756V9.858ZM70.718 6.176C70.718 5.98 70.718 5.77933 70.718 5.574C70.7273 5.35933 70.7367 5.14933 70.746 4.944C70.7553 4.73867 70.7647 4.552 70.774 4.384C70.7833 4.216 70.7927 4.08533 70.802 3.992H70.746C70.662 4.16933 70.5687 4.356 70.466 4.552C70.3727 4.73867 70.2653 4.916 70.144 5.084L67.876 8.416H70.718V6.176ZM77.2597 10.53C77.1757 10.8567 77.0684 11.2113 76.9377 11.594C76.8071 11.9673 76.6671 12.3407 76.5177 12.714C76.3684 13.0967 76.2144 13.4607 76.0557 13.806H74.7817C74.8751 13.442 74.9637 13.0547 75.0477 12.644C75.1317 12.2427 75.2111 11.846 75.2857 11.454C75.3604 11.062 75.4211 10.7027 75.4677 10.376H77.1617L77.2597 10.53ZM80.1619 12L84.0539 3.53H78.9439V2.004H85.9439V3.194L82.0519 12H80.1619Z" fill="black"/>
<path d="M98.11 3.03925L98.9325 4.68425C99.0433 4.91175 99.3408 5.12758 99.5917 5.17425L101.079 5.41925C102.03 5.57675 102.252 6.26508 101.569 6.95341L100.408 8.11425C100.216 8.30675 100.105 8.68591 100.169 8.96008L100.502 10.3951C100.764 11.5267 100.157 11.9701 99.16 11.3751L97.7658 10.5467C97.515 10.3951 97.095 10.3951 96.8442 10.5467L95.45 11.3751C94.4525 11.9642 93.8458 11.5267 94.1083 10.3951L94.4408 8.96008C94.4933 8.68008 94.3825 8.30091 94.19 8.10841L93.0292 6.94758C92.3467 6.26508 92.5683 5.57675 93.5192 5.41341L95.0067 5.16841C95.2575 5.12758 95.555 4.90591 95.6658 4.67841L96.4883 3.03341C96.9375 2.14675 97.6608 2.14675 98.11 3.03925Z" fill="url(#paint0_linear_775_2622)"/>
<defs>
<linearGradient id="paint0_linear_775_2622" x1="92.6328" y1="7.00442" x2="101.966" y2="7.00442" gradientUnits="userSpaceOnUse">
<stop stop-color="#F6D365"/>
<stop offset="1" stop-color="#FBB708"/>
</linearGradient>
<clipPath id="clip0_775_2622">
<rect width="49" height="14" fill="white"/>
</clipPath>
</defs>
</svg>
